<?xml version="1.0" encoding="utf-8"?>
<!-- Generator: Adobe Illustrator 27.0.0, SVG Export Plug-In . SVG Version: 6.00 Build 0)  -->
<svg version="1.1" id="Layer_1" xmlns="http://www.w3.org/2000/svg" xmlns:xlink="http://www.w3.org/1999/xlink" x="0px" y="0px"
	 viewBox="0 0 800 800" style="enable-background:new 0 0 800 800;" xml:space="preserve">
<style type="text/css">
	.st0{fill-rule:evenodd;clip-rule:evenodd;fill:#FFFFFF;}
</style>
<path class="st0" d="M610.4,778.4c-28.9-10.9-53.5-25.1-72.8-38.4c-42.5,17.2-89,26.7-137.6,26.7C197.5,766.7,33.3,602.5,33.3,400
	C33.3,197.5,197.5,33.3,400,33.3c202.5,0,366.7,164.2,366.7,366.7c0,76-23.1,146.6-62.7,205.2c-2.5,48.4,22.9,92.2,49.3,130.9
	c23.1,33.9,17.3,61.2-25.8,63.7C708.1,800.8,666.3,799.6,610.4,778.4z M100,400c0-165.7,134.3-300,300-300
	c165.7,0,300,134.3,300,300c0,65-20.6,125.1-55.7,174.2c-15.5,21.7-7.5,62.5-2.2,85.8c5.2,22.7,16.4,46.8,27.5,67
	c-10.6-2.6-22.5-6.1-35.5-11c-29.9-11.3-54.6-27.3-72.1-40.7c-9.9-7.6-23.2-9-34.5-3.7C488.8,689.8,445.7,700,400,700
	C234.3,700,100,565.7,100,400z M233.3,450c27.6,0,50-22.4,50-50c0-27.6-22.4-50-50-50s-50,22.4-50,50
	C183.3,427.6,205.7,450,233.3,450z M450,400c0,27.6-22.4,50-50,50c-27.6,0-50-22.4-50-50c0-27.6,22.4-50,50-50
	C427.6,350,450,372.4,450,400z M566.7,450c27.6,0,50-22.4,50-50c0-27.6-22.4-50-50-50c-27.6,0-50,22.4-50,50
	C516.7,427.6,539.1,450,566.7,450z"/>
</svg>
