<?xml version="1.0" encoding="utf-8"?>
<!-- Generator: Adobe Illustrator 27.0.0, SVG Export Plug-In . SVG Version: 6.00 Build 0)  -->
<svg version="1.1" id="Layer_1" xmlns="http://www.w3.org/2000/svg" xmlns:xlink="http://www.w3.org/1999/xlink" x="0px" y="0px"
	 viewBox="0 0 800 800" style="enable-background:new 0 0 800 800;" xml:space="preserve">
<style type="text/css">
	.st0{fill-rule:evenodd;clip-rule:evenodd;fill:#FFFFFF;}
</style>
<path class="st0" d="M400,100c-165.7,0-300,134.3-300,300c0,165.7,134.3,300,300,300c165.7,0,300-134.3,300-300
	C700,234.3,565.7,100,400,100z M33.3,400C33.3,197.5,197.5,33.3,400,33.3c202.5,0,366.7,164.2,366.7,366.7
	c0,202.5-164.2,366.7-366.7,366.7C197.5,766.7,33.3,602.5,33.3,400z M441.7,558.3c0,23-18.7,41.7-41.7,41.7
	c-23,0-41.7-18.7-41.7-41.7s18.7-41.7,41.7-41.7C423,516.7,441.7,535.3,441.7,558.3z M337.8,298.8c8.8-16.8,31.6-32.1,62.2-32.1
	c42.8,0,66.7,27.8,66.7,50c0,22.2-23.9,50-66.7,50c-18.4,0-33.3,14.9-33.3,33.3v33.3c0,18.4,14.9,33.3,33.3,33.3
	c18.4,0,33.3-14.9,33.3-33.3v-3.8c54.4-12.4,100-54.6,100-112.9c0-69.9-65.6-116.7-133.3-116.7c-51.4,0-99.2,25.8-121.2,67.9
	c-8.5,16.3-2.3,36.5,14,45C309.1,321.4,329.3,315.1,337.8,298.8z"/>
</svg>
