<?xml version="1.0" encoding="utf-8"?>
<!-- Generator: Adobe Illustrator 27.0.0, SVG Export Plug-In . SVG Version: 6.00 Build 0)  -->
<svg version="1.1" id="Layer_1" xmlns="http://www.w3.org/2000/svg" xmlns:xlink="http://www.w3.org/1999/xlink" x="0px" y="0px"
	 viewBox="0 0 800 800" style="enable-background:new 0 0 800 800;" xml:space="preserve">
<style type="text/css">
	.st0{fill-rule:evenodd;clip-rule:evenodd;fill:#FFFFFF;}
</style>
<path class="st0" d="M174.7,45c6.3-7.4,15.6-11.6,25.3-11.6h400c9.7,0,19,4.3,25.3,11.6l100,116.7c9.8,11.4,10.7,27.9,2.3,40.4
	L561.2,448.2c24.4,33.2,38.8,74.1,38.8,118.5c0,110.5-89.5,200-200,200s-200-89.5-200-200c0-44.3,14.4-85.3,38.8-118.5L72.4,202
	c-8.4-12.4-7.5-29,2.3-40.4L174.7,45z M287.6,401.2c17.5-11.9,37.1-21.2,58.1-27.1l-94.2-157l-56.2-93.7l-53.4,62.3L287.6,401.2z
	 M258.9,100l40,66.7h202.3l40-66.7H258.9z M604.8,123.5l53.4,62.3L512.4,401.2c-17.5-11.9-37.1-21.2-58.1-27.1l94.2-157L604.8,123.5
	z M400,335.2l61.1-101.9H338.9L400,335.2z M400,433.3c-37.5,0-71.3,15.4-95.5,40.3c-23.4,24.1-37.8,56.8-37.8,93
	c0,73.6,59.7,133.3,133.3,133.3c73.6,0,133.3-59.7,133.3-133.3c0-36.2-14.4-68.9-37.8-93C471.3,448.7,437.5,433.3,400,433.3z"/>
</svg>
